<svg xmlns="http://www.w3.org/2000/svg" xmlns:xlink="http://www.w3.org/1999/xlink" xmlns:xodm="http://www.corel.com/coreldraw/odm/2003" xml:space="preserve" width="567px" height="484px" style="shape-rendering:geometricPrecision; text-rendering:geometricPrecision; image-rendering:optimizeQuality; fill-rule:evenodd; clip-rule:evenodd" viewBox="0 0 1371.42 1253.62"> <defs>  <style type="text/css">   <![CDATA[    .str0 {stroke:#339DC4;stroke-width:11.34;stroke-miterlimit:22.9256}    .str1 {stroke:#4C96A8;stroke-width:11.34;stroke-miterlimit:22.9256}    .fil1 {fill:none}    .fil2 {fill:#00A6FF}    .fil7 {fill:#00CCFF}    .fil4 {fill:#15B049}    .fil8 {fill:#210631}    .fil9 {fill:#210732}    .fil6 {fill:#220732}    .fil11 {fill:#221434}    .fil5 {fill:#339DC4}    .fil10 {fill:#FDFDFD}    .fil3 {fill:#FEFEFE}    .fil0 {fill:url(#id4)}   ]]>  </style>   <clipPath id="id0">    <path d="M1266.71 566.82c37.28,339.96 -208.08,645.77 -548.04,683.05 -339.96,37.29 -645.77,-208.08 -683.05,-548.03 -37.29,-339.96 208.08,-645.77 548.03,-683.06 339.96,-37.28 645.77,208.09 683.06,548.04z"></path>   </clipPath>   <mask id="id1">  <linearGradient id="id2" gradientUnits="userSpaceOnUse" x1="157.16" y1="-66.53" x2="236.75" y2="413.64">   <stop offset="0" style="stop-opacity:1; stop-color:white"></stop>   <stop offset="1" style="stop-opacity:0; stop-color:white"></stop>  </linearGradient>    <rect style="fill:url(#id2)" x="122.16" width="383.75" height="395.96"></rect>   </mask>   <clipPath id="id3">    <path d="M1101.39 660.28c88.24,-48.45 199.06,-16.18 247.5,72.07 48.44,88.25 16.17,199.06 -72.07,247.51 -88.25,48.44 -199.07,16.17 -247.51,-72.08 -48.44,-88.25 -16.17,-199.06 72.08,-247.5z"></path>   </clipPath>  <linearGradient id="id4" gradientUnits="userSpaceOnUse" x1="583.65" y1="18.78" x2="718.67" y2="1249.87">   <stop offset="0" style="stop-opacity:1; stop-color:#00B5FC"></stop>   <stop offset="1" style="stop-opacity:1; stop-color:#320847"></stop>  </linearGradient> </defs> <g id="Layer_x0020_1">  <metadata id="CorelCorpID_0Corel-Layer"></metadata>  <path class="fil0" d="M1266.71 566.82c37.28,339.96 -208.08,645.77 -548.04,683.05 -339.96,37.29 -645.77,-208.08 -683.05,-548.03 -37.29,-339.96 208.08,-645.77 548.03,-683.06 339.96,-37.28 645.77,208.09 683.06,548.04z"></path>  <g style="clip-path:url(#id0)">   <g id="_2194990893472">    <circle class="fil1 str0" cx="156.98" cy="312.34" r="106.96"></circle>   </g>  </g>  <path class="fil1" d="M1266.71 566.82c37.28,339.96 -208.08,645.77 -548.04,683.05 -339.96,37.29 -645.77,-208.08 -683.05,-548.03 -37.29,-339.96 208.08,-645.77 548.03,-683.06 339.96,-37.28 645.77,208.09 683.06,548.04z"></path>  <path class="fil2" style="mask:url(#id1)" d="M314.03 0c105.98,0 191.88,88.64 191.88,197.98 0,109.34 -85.9,197.98 -191.88,197.98 -105.96,0 -191.87,-88.64 -191.87,-197.98 0,-109.34 85.91,-197.98 191.87,-197.98z"></path>  <g>  </g>  <g style="clip-path:url(#id3)">   <g>    <path class="fil1 str1" d="M1534.91 745.82l-187.09 352.6m136.63 -373.01l-187.09 352.6m136.64 -373.01l-187.09 352.6m136.64 -373.01l-187.09 352.6m136.64 -373.01l-187.09 352.6m136.64 -373.02l-187.09 352.61m136.63 -373.02l-187.09 352.6m136.64 -373.01l-187.09 352.6m136.64 -373.01l-187.09 352.6m136.64 -373.01l-187.09 352.6m136.64 -373.02l-187.09 352.61"></path>    <path class="fil1 str1" d="M1609.45 775.48l-187.09 352.6m136.64 -373.02l-187.09 352.61m136.64 -373.02l-187.09 352.6m136.64 -373.01l-187.09 352.6m136.64 -373.01l-187.09 352.6m136.63 -373.01l-187.09 352.6m136.64 -373.01l-187.09 352.6m136.64 -373.02l-187.09 352.6m136.64 -373.01l-187.09 352.6m136.64 -373.01l-187.09 352.6m136.63 -373.01l-187.09 352.6"></path>   </g>  </g>  <path class="fil1" d="M1101.39 660.28c88.24,-48.45 199.06,-16.18 247.5,72.07 48.44,88.25 16.17,199.06 -72.07,247.51 -88.25,48.44 -199.07,16.17 -247.51,-72.08 -48.44,-88.25 -16.17,-199.06 72.08,-247.5z"></path>  <path class="fil3" d="M1017.47 766.94c-2.14,16.15 -4.33,31.94 -6.28,48 -2.24,18.35 -4.13,14.23 -37.55,9.95l-192.8 -25.24c-29.36,-3.87 -61.02,-1.31 -54.26,-51.61 3.3,-24.5 3.14,-65.74 45.21,-60.03l192.93 25.31c32.27,4.22 59.5,2.69 52.75,53.62zm-323.48 -122.89c-2.38,-9.83 2.56,-35.73 4.05,-47.93 8.45,-68.97 19.68,-58.52 99.85,-48.79l143.3 17.79c19.88,2.45 31.09,1.15 41.09,14.27 13.79,18.09 5.21,72.37 -6.66,86.57 -11.01,13.17 -21.87,11.09 -41.03,8.71 -16.1,-2 -32.44,-4.06 -48.99,-6.12 -16.63,-2.06 -180.06,-21.15 -191.61,-24.5zm-22.27 -86.1l-18.15 140.55c-4.4,33.82 -16.2,113.86 -18.11,142.55l35.69 -1.06c3.4,-8.43 14.36,-16.52 27.26,-15.94 11.81,0.53 27.83,3.33 39.83,4.87l158.11 19.67c29.68,3.71 52.9,2.54 56.79,33.2 1.58,12.46 -2.49,59.55 -16.76,71.87 -15.72,13.58 -50.75,3.94 -73.65,1.11 -25.09,-3.1 -145.92,-19.75 -159.78,-19.19l1.45 32.96 314.03 40.34c1.55,-3.82 76.26,-573.09 75.06,-583.79 -4.89,-3.3 -294.58,-37.75 -352.36,-44.88 -5.33,-0.65 -17.17,-4.2 -21.81,-0.77 -0.88,8.44 1.4,18.2 1.75,27.09 3.57,91.07 -45.86,141.82 -49.35,151.42z"></path>  <path class="fil4" d="M367.93 545.59c2.25,-15.16 10.31,-39.48 14.82,-55.48 7.15,-25.31 -3.3,-13.34 -11.33,-52.68 -9.44,-46.27 5.23,-83.65 27.04,-111.78 75.28,-97.07 243.91,-42.51 237.54,91.12 -4.41,92.47 -101.42,152.39 -184.83,116.77 -14.8,-6.32 -9.12,-6.95 -26.1,-2.51 -16.7,4.36 -41.33,12.38 -57.14,14.56zm64.27 -350.43c-4.14,4.13 -14,5.5 -19.77,7.83 -5.7,2.32 -13.18,6.82 -18.59,6.89 -2.86,3.49 -19.57,12.27 -24.44,15.49l-21.84 14.99c-1.68,2.71 -0.32,0.8 -2.22,2.91 -0.3,0.33 -1.24,1.26 -1.57,1.57 -1.38,1.3 -2.36,1.86 -4.01,3.25 -2.97,2.5 -4.68,4.29 -7.43,7.07 -4.64,4.67 -10.09,12.63 -12.9,13.33 -3.99,7.19 -8.66,12.26 -13.67,19.66l-12.08 18.87 -5.71 11.64c-1.79,7.14 -5.94,15.44 -8.6,23.07 -2.66,7.59 -4.28,15.6 -6.73,22.67 -2.94,21.29 -5.57,35.62 -5.23,58.53l3.25 32.21 10.56 41.38c0.27,0.28 0.63,0.36 0.73,0.9l20.25 39.24 10.15 13.64c20.34,27.82 62.26,64.82 93.62,73.01 -0.68,-8.3 -3.1,-18.14 3.67,-23.41 8.97,-6.99 25.03,-4.56 32.37,16.91 1.16,3.42 2.1,6.83 2.74,10.3 2.01,10.98 0.3,9.65 4.51,11.49 5.8,-1.05 23.86,2.36 31.77,2.82 12.34,0.71 23.49,-0.16 35.39,-0.45l13.65 -1.57 32.11 -7.5c5.44,-3.29 20.46,-7.9 27.95,-11.41 9.92,-4.66 18.67,-10.87 27.09,-14.55 4.04,-3.19 8.47,-5.17 11.71,-8.96l0.94 3.52c5.01,-6.44 -4.33,-0.46 14.69,-15.66 6.65,-5.31 10.58,-10.04 16.42,-15.18l-0.32 6.25c3.43,-3.15 1.32,-0.53 2.54,-5.13 1.35,-5.09 -1.08,-0.43 1.22,-5.54 1.34,-2.97 4.91,-5.43 7.3,-7.29 3.49,-9.6 52.92,-60.35 49.35,-151.42 -0.35,-8.89 -2.63,-18.65 -1.75,-27.09l-7.79 -30.65c-2.52,-8.39 -8.82,-21.38 -9.23,-28.27 -3.86,-2.99 -5.86,-7.47 -5.89,-13.04 -5.72,-2.92 -8.52,-11.34 -12.31,-17.02 -3.07,-4.6 -9.89,-13.07 -10.93,-17.69 -3.54,-1.55 -9.22,-7.78 -11.02,-12.16 -1.43,-0.68 -25.31,-23.57 -40.77,-33.9 -7.51,-5.02 -14.9,-9.61 -23.65,-14.11 -5.06,-2.61 -20.9,-8.65 -23.92,-10.98 -15.72,-3.53 -28.79,-8.84 -46.69,-11.44 -18.9,-2.74 -35.21,-2.64 -54.47,-1.54l-40.45 6.52z"></path>  <path class="fil3" d="M770.62 1051.78c-6.47,-53.32 70.03,-62.08 77.68,-12.84 3.7,23.88 -12.55,43.33 -31.82,46.51 -24.52,4.06 -43.41,-13.39 -45.86,-33.67zm93.34 -815.93c7.75,-4.45 53.34,4.09 65.18,5.62 8.38,1.08 24.86,1.63 31.04,5.39 9.26,5.62 6.89,19.61 -1.16,23.13 -6.44,2.81 -90.31,-8.28 -95.21,-11.05 -8.51,-4.8 -8.06,-18.37 0.15,-23.09zm47.9 -35.32c14.52,-8.69 24.45,13.72 12.13,21.44 -7.03,4.41 -15.19,1.17 -17.79,-4.02 -5.17,-10.33 1.02,-14.64 5.66,-17.42zm-238.69 72.24c1.04,4.62 7.86,13.09 10.93,17.69 3.79,5.68 6.59,14.1 12.31,17.02 -1.26,-8.36 0.92,-19.97 2.69,-28.55 2.39,-11.59 10.27,-9.02 21.41,-7.51l339.81 43.81c15.57,2.02 43.86,2.32 54.08,10.95 1.49,12.9 -5.11,49.88 -7,64.69l-73.14 567.69c-1.27,10.08 -2.69,20.74 -3.99,30.92 -4.46,34.92 3.62,30.1 -72.77,20.1 -25.95,-3.4 -232.03,-31.39 -252.94,-32.27 0.57,17.15 4.64,74.15 2.05,86.82 -5.72,28.07 -40.92,18.84 -69.71,21.94l114.36 15.09c39.13,5.02 77.75,10.03 116.98,15.06 25.35,3.25 97.86,15.72 118.43,11.24 19.58,-4.26 31.4,-14.1 40.6,-24.79 12.55,-14.59 14.69,-26.89 17.58,-49.39 19.99,-155.78 40.1,-311.59 60.24,-467.4 10,-77.37 20,-155.21 29.96,-232.77 4.34,-33.79 17.12,-85.41 1.96,-114.49 -20.05,-38.44 -53.54,-38.23 -89.3,-42.84 -77.64,-10.02 -155.24,-20.09 -232.87,-30.03 -40.56,-5.2 -79.39,-16.52 -108.73,8.33 -28.31,23.98 -27.91,52.87 -32.94,98.69z"></path>  <path class="fil5" d="M127.67 709.88c-2.73,2.65 -10.24,5.91 -13.99,8.19 -5.21,3.15 -9.36,7.61 -14.35,9.64l-14.32 16.36c-0.95,3.75 -2.26,4.75 -4.92,8.7 -2.92,4.33 -2.77,5.52 -6.77,8.32 -0.9,8.18 -10.5,16.86 -10.37,25.73 10.17,6 -4.79,22.41 -14.82,41.55 -7.25,13.83 -14.05,28.89 -19.62,44.34 -11.7,32.49 -21.17,74.83 -1.04,104.88 16.86,25.16 51.49,32.46 91.55,37.78 39.17,5.21 79.2,7.88 119.05,10.19l0.68 -105.58 -95.1 -1.78c-5.36,-0.1 -10.69,-0.22 -16.05,-0.26 -20.96,-0.15 -16.13,-5.69 -0.88,-44.4 3.84,-9.76 11.13,-32.63 16.58,-39.56l8.14 0.58c4.05,12.48 -19.3,54.41 -22.47,70.55 134.5,3.11 122.93,-9.1 122.44,33.7l8.65 -0.11c2.96,-11.21 10.77,-12.33 11.3,-18.98 0.91,-11.48 -18.58,-98.17 -14.13,-104.7 7.43,-10.96 11.89,5.08 12.81,11.52 2.54,17.7 6.42,36.53 8.19,54.03 9.99,3.7 22.04,14.87 32.64,17.27 -1.07,-20.35 -2.44,-35.13 11.76,-43.47 9.89,-5.8 38.53,-4.37 52.09,-4.8 35.76,-1.16 72.07,-2.98 107.71,-3.47 0.35,-1.39 19.49,-46.36 20.1,-47.19l8.61 -27.61 7.73 -31.97c0.86,-13.36 -3.47,-11.34 -14.96,-14.29 -6.68,-1.71 -15.6,-3.02 -20.54,-6.73 -5.61,0.55 -54.79,-12.24 -60.56,-15.17 -8.05,-1 -10.09,-3.42 -17.77,-1.69 -1.16,2.31 -2,5.02 -2.98,8.5 -1.26,4.5 -0.49,4.18 -3.13,7.52 0.41,5.29 -1.43,13.65 -4.42,17.22 0.34,6.27 -2.04,18.74 -5.9,23.01 0.24,6.62 -9.21,45.04 -12.44,49.68l-88.74 -65.03c-14.88,-11.03 -29.32,-21.47 -44.29,-32.73 -17.33,-13.04 -40.31,-13.93 -66.05,-12.56 -9.02,1.51 -16.86,2.53 -25.72,4.91 -8.65,2.32 -15.72,5.68 -23.7,7.91z"></path>  <path class="fil3" d="M556.14 1006.59c-8.91,3.16 -70.33,3.55 -85.5,4.04l-66.86 2.18c-9.25,0.31 -17.8,2.34 -21.46,-2.43 -7.75,-10.88 29.31,-8.29 37.45,-8.55 16.62,-0.54 32.66,-1.06 49.39,-1.61 15.79,-0.53 32.16,-1.06 47.94,-1.57 28.3,-0.9 43.11,-5.61 39.04,7.94zm-176.48 -74.93c7.8,-4.09 113.49,-5.21 131.62,-5.79l100.32 -3.27c5.88,-0.19 30.83,-3.39 23.82,7.43 -2.98,4.59 -55.9,4.08 -65.97,4.41l-165.67 5.38c-11.16,0.37 -27.71,5.09 -24.12,-8.16zm-55.13 4.57c28.48,2.7 80.08,7.12 71.98,42.68 -6.49,28.47 -38.42,39.26 -70.98,45.1l2.9 92.72 23.3 -26.92c3.76,-5.25 2.93,-5.5 11.25,-5.81 22.44,-0.84 44.63,-1.34 66.96,-2.06 44.12,-1.43 88.02,-2.87 132.28,-4.29 18.5,-0.6 121.37,-1.06 129.06,-7.2 9.61,-7.68 4.25,-48.35 3.8,-63.74l-4.34 -132.22c-0.34,-12.29 -0.5,-20.78 -11,-23.47 -6.34,-1.62 -26.91,-0.03 -34.72,0.23l-298.05 9.68c-11.62,0.33 -21.66,-0.05 -25.31,9.91 -2.71,7.41 0.72,56.94 2.87,65.39z"></path>  <path class="fil6" d="M324.53 936.23c-2.15,-8.45 -5.58,-57.98 -2.87,-65.39 3.65,-9.96 13.69,-9.58 25.31,-9.91l298.05 -9.68c7.81,-0.26 28.38,-1.85 34.72,-0.23 10.5,2.69 10.66,11.18 11,23.47l4.34 132.22c0.45,15.39 5.81,56.06 -3.8,63.74 -7.69,6.14 -110.56,6.6 -129.06,7.2 -44.26,1.42 -88.16,2.86 -132.28,4.29 -22.33,0.72 -44.52,1.22 -66.96,2.06 -8.32,0.31 -7.49,0.56 -11.25,5.81l-23.3 26.92 -2.9 -92.72c32.56,-5.84 64.49,-16.63 70.98,-45.1 8.1,-35.56 -43.5,-39.98 -71.98,-42.68zm395.68 -786.12c-2.5,2.79 -16.19,9.7 -21.37,13.77 -10.81,8.5 -13.44,14.2 -17.29,16.66 -3.85,11.55 -13.01,20.24 -13.68,37.13l-5.72 42.94c1.8,4.38 7.48,10.61 11.02,12.16 5.03,-45.82 4.63,-74.71 32.94,-98.69 29.34,-24.85 68.17,-13.53 108.73,-8.33 77.63,9.94 155.23,20.01 232.87,30.03 35.76,4.61 69.25,4.4 89.3,42.84 15.16,29.08 2.38,80.7 -1.96,114.49 -9.96,77.56 -19.96,155.4 -29.96,232.77 -20.14,155.81 -40.25,311.62 -60.24,467.4 -2.89,22.5 -5.03,34.8 -17.58,49.39 -9.2,10.69 -21.02,20.53 -40.6,24.79 -20.57,4.48 -93.08,-7.99 -118.43,-11.24 -39.23,-5.03 -77.85,-10.04 -116.98,-15.06l-114.36 -15.09c28.79,-3.1 63.99,6.13 69.71,-21.94 2.59,-12.67 -1.48,-69.67 -2.05,-86.82 20.91,0.88 226.99,28.87 252.94,32.27 76.39,10 68.31,14.82 72.77,-20.1 1.3,-10.18 2.72,-20.84 3.99,-30.92l73.14 -567.69c1.89,-14.81 8.49,-51.79 7,-64.69 -10.22,-8.63 -38.51,-8.93 -54.08,-10.95l-339.81 -43.81c-11.14,-1.51 -19.02,-4.08 -21.41,7.51 -1.77,8.58 -3.95,20.19 -2.69,28.55 0.03,5.57 2.03,10.05 5.89,13.04l5.37 -41.62c12.9,-0.35 36.68,4.1 50.6,5.94l346.91 45.59c0.22,-0.36 0.81,0.32 1.18,0.54 -0.84,13.14 -8.96,88.26 -12.87,94.12 1.2,10.7 -73.51,579.97 -75.06,583.79l-314.03 -40.34 -1.45 -32.96c0.5,-20.21 -1.21,-42.18 -1.81,-62.61 -0.64,-21.33 -7.29,-33.88 -29.99,-32.98l-35.69 1.06c1.91,-28.69 13.71,-108.73 18.11,-142.55l18.15 -140.55c-2.39,1.86 -5.96,4.32 -7.3,7.29 -2.3,5.11 0.13,0.45 -1.22,5.54 -1.22,4.6 0.89,1.98 -2.54,5.13 -1.51,21.42 -5.68,45.86 -8.51,67.44l-17.07 132.53c-10.3,80.8 -1.92,64.71 -34.92,66.42 0.48,-31.69 31.48,-223.66 29.71,-241.8l-0.94 -3.52c-3.24,3.79 -7.67,5.77 -11.71,8.96l-6.4 53.46 -5.24 37.8 -6.56 53.27 -2.06 13.58 -5.43 42.14 -4.43 36.5 -13.24 0.32 -91.43 3.09c-35.64,0.49 -71.95,2.31 -107.71,3.47 -13.56,0.43 -42.2,-1 -52.09,4.8 -14.2,8.34 -12.83,23.12 -11.76,43.47l-0.34 15.34c-12.66,-1.69 -16.54,0.81 -26.87,0.79l-5.43 -33.4c-1.77,-17.5 -5.65,-36.33 -8.19,-54.03 -0.92,-6.44 -5.38,-22.48 -12.81,-11.52 -4.45,6.53 15.04,93.22 14.13,104.7 -0.53,6.65 -8.34,7.77 -11.3,18.98 6.3,16.28 15.39,-3.17 19.66,-6.62 6.13,-4.96 19.97,-10.1 29.25,-5.27 4.33,3.75 -0.97,14.28 5.23,19.91 4.55,4.52 45.29,3.68 57.2,11.68 -8.37,2.32 -36.26,4.38 -41.73,9.09 1.25,9.01 0.22,7.56 11.06,5.5 8.55,-1.63 40,-9.01 42.85,-5.5 2.48,7.71 -1.82,8.3 -8.27,10.76 -34.49,13.18 -51.37,5.59 -46.16,17.53 11.09,4.2 36.26,-5.8 47.87,-8.25 -12,20.55 -58.89,25.57 -83.65,26 -20.72,0.36 -28.67,-4.07 -28.29,6.59 1.42,8.24 12.67,6.36 22.44,6.37 9.17,0.01 18.56,-1.06 27.51,-0.87 0.05,7.31 1.05,13.79 -0.4,20.78 3.71,6.6 2.35,55.48 3.3,67.88 0.23,11 2.43,17.93 14.95,13.72 5.7,-4.46 14.39,-16.92 20.41,-23.5 2.75,-3 0.46,-1.44 4.26,-3.81 3.86,-8.43 8.94,-6.24 20.06,-6.57 9.64,-0.28 19.51,-0.21 29.04,-1.27l76.96 -2.2 71.3 -2.25c12.99,-0.68 48.58,-4.55 54.83,2.11 14.16,4.55 17.96,7.36 35.09,9.61 8.69,1.14 33.33,1.93 38.72,6.03 10.14,-1.09 76.31,8.91 96.37,11.34 2.02,0.24 4.45,0.42 6.37,0.74l7.23 2.2c7.85,-1.65 49.8,4.23 58.53,6.59 24.3,1.99 50.28,6.22 74.72,9.43 32.65,4.3 40.05,6.8 72.85,0.77 19.74,-7.1 30.27,-16.09 42.38,-31.67 4.9,-11.29 9.84,-16.91 12.73,-32.08 2.14,-11.23 0.83,-30.59 6.37,-39.12 -1,-5.02 -1.5,-10.01 1.45,-13.83l-0.37 -1.49c0.44,-7.87 1.6,-27.09 4.75,-32.38l0.58 -10 4.82 -33.89 0.39 -8.94 5.07 -35.18 0.52 -5.47c0.86,-9.14 2.3,-34.2 5.66,-40.52l-0.32 -3.47 4.24 -32.15 1.5 -10.72c1.07,-9.2 0.69,-26.67 5.23,-33.19l0.09 -9.36c2.08,-12.34 5.77,-62.85 10.08,-69.01 -0.87,-7.22 0.82,-14.99 1.78,-22.27 1.44,-10.78 2.02,-37.56 6.88,-44.8 -0.87,-5.95 -0.36,-19.76 3.04,-24.13 -0.61,-5.95 -0.32,-17.62 2.87,-22.01 -1.03,-9.09 1.44,-24.05 3.03,-30.52l4.04 -30.89c1.3,-4.59 0.45,-1.87 1.42,-3.45 -0.95,-4.41 -0.59,-11.78 1.75,-15 -0.81,-8.04 1.93,-38.49 5.71,-43.79 -0.84,-6.54 0.47,-16.01 1.91,-21.65 0.61,-7.47 1.85,-31.59 5.46,-36.03 -0.6,-6.05 -0.06,-15.52 2.68,-19.84 -1.08,-6.31 1.35,-31.38 4.51,-35.68 -0.51,-4.56 -0.52,-5.46 0.1,-10.22 0.13,-1.01 0.66,-3.65 1.02,-4.88 1.42,-4.83 0.54,-2.02 1.46,-3.62 -1.5,-5.66 3.02,-41 5.57,-45.91 0,-32.87 -6.23,-45.28 -20.31,-63.93 -9.08,-12.03 -35.49,-29.4 -56.71,-28.95l-91.56 -11.8 -34.88 -4.48 -108.99 -14.05 -77.75 -9.94c-9.28,-0.96 -16.5,-1.92 -25.8,-0.89 -7.83,0.88 -15.02,4.14 -21.81,4.09z"></path>  <path class="fil5" d="M702.3 320.52c0.41,6.89 6.71,19.88 9.23,28.27l7.79 30.65c4.64,-3.43 16.48,0.12 21.81,0.77 57.78,7.13 347.47,41.58 352.36,44.88 3.91,-5.86 12.03,-80.98 12.87,-94.12 -0.37,-0.22 -0.96,-0.9 -1.18,-0.54l-346.91 -45.59c-13.92,-1.84 -37.7,-6.29 -50.6,-5.94l-5.37 41.62z"></path>  <path class="fil4" d="M520.04 443.14c10.92,-7.39 10.64,-19.86 21.42,-16.06 5.06,1.78 24.43,11.42 28.03,14.34 4.03,20.16 -13.37,32.67 -32.01,32.71 -47.25,0.11 -127.04,-76.03 -95.75,-116.84 5.9,-7.69 10.23,-10.92 24.33,-8.53 3.47,5.37 10.5,21.51 13.05,29.07 5.26,15.53 -15.59,14.54 -7.63,27.73 7.34,12.16 29.94,35.88 48.56,37.58zm-119.58 70.35c18.25,-3.34 36.72,-12.84 46.4,-7.65 120.09,64.32 222.24,-90.18 133.2,-175.31 -93.95,-89.82 -239.31,25.24 -172.14,137.35 6.2,10.36 -4.08,24.52 -7.46,45.61z"></path>  <path class="fil5" d="M693.99 644.05c11.55,3.35 174.98,22.44 191.61,24.5 16.55,2.06 32.89,4.12 48.99,6.12 19.16,2.38 30.02,4.46 41.03,-8.71 11.87,-14.2 20.45,-68.48 6.66,-86.57 -10,-13.12 -21.21,-11.82 -41.09,-14.27l-143.3 -17.79c-80.17,-9.73 -91.4,-20.18 -99.85,48.79 -1.49,12.2 -6.43,38.1 -4.05,47.93z"></path>  <path class="fil7" d="M1017.47 766.94c6.75,-50.93 -20.48,-49.4 -52.75,-53.62l-192.93 -25.31c-42.07,-5.71 -41.91,35.53 -45.21,60.03 -6.76,50.3 24.9,47.74 54.26,51.61l192.8 25.24c33.42,4.28 35.31,8.4 37.55,-9.95 1.95,-16.06 4.14,-31.85 6.28,-48z"></path>  <path class="fil5" d="M671.15 839.99c22.7,-0.9 29.35,11.65 29.99,32.98 0.6,20.43 2.31,42.4 1.81,62.61 13.86,-0.56 134.69,16.09 159.78,19.19 22.9,2.83 57.93,12.47 73.65,-1.11 14.27,-12.32 18.34,-59.41 16.76,-71.87 -3.89,-30.66 -27.11,-29.49 -56.79,-33.2l-158.11 -19.67c-12,-1.54 -28.02,-4.34 -39.83,-4.87 -12.9,-0.58 -23.86,7.51 -27.26,15.94z"></path>  <path class="fil8" d="M139.39 652.36c4.7,-6.51 14.93,-16.32 9.98,-30.7 -3.63,-10.51 -18.69,-7.89 -26.76,-16.79 -12.32,-13.59 -6.32,-38.65 14.8,-36.39 8.71,0.93 8.37,5.12 14.96,8.04 26.4,-14.93 30.5,-32.81 29.44,-63.38 16.62,6.17 29.29,19.04 38.56,30.3 12.33,14.99 6.89,24.84 32.48,37.15 -2.02,6.9 -5.6,9.23 -9.29,14.48 -7.07,10.03 2.22,28.35 -23.67,49.03 -17.85,14.25 -55.53,15.86 -80.5,8.26zm-101.82 -186.83c-19.47,4.96 -32.01,17.8 -36.28,36.98 -2.63,11.8 -1.05,20.84 3,30.31 4.24,9.95 9.55,12.61 15.84,20.03 6.6,1.67 11.27,5.76 19.31,7.3 10.68,2.03 16.66,0.11 26.47,-1.79 -5.15,40.83 4.25,39.39 4.61,54.32 6.49,5.59 24.97,59.71 110.51,56.66 23.57,-2.26 27.53,-5.76 45.45,-13.07 0.99,-3.74 5.74,-2.68 15.27,-16.42l5.49 -7.07c0.1,-4.41 2.85,-8.46 4.22,-13.83 0.77,-3.02 0.85,-4.44 1.33,-7.65 0.81,-5.46 -0.48,-5.02 2.32,-7.65 1.38,-5.45 2.49,-5.26 5.8,-10.07l6.66 -10.13c-5,-19.02 -18.7,-15.67 -24.85,-27.46 -18.4,-35.23 -50.04,-63.55 -93.24,-63.74 -29.68,-0.14 -38.56,10.9 -52.33,16.82 -4.3,-11.05 -1.5,-19.17 -18.16,-33.53 -12.48,-10.75 -23.03,-10.99 -41.42,-10.01z"></path>  <path class="fil3" d="M400.46 513.49c3.38,-21.09 13.66,-35.25 7.46,-45.61 -67.17,-112.11 78.19,-227.17 172.14,-137.35 89.04,85.13 -13.11,239.63 -133.2,175.31 -9.68,-5.19 -28.15,4.31 -46.4,7.65zm-32.53 32.1c15.81,-2.18 40.44,-10.2 57.14,-14.56 16.98,-4.44 11.3,-3.81 26.1,2.51 83.41,35.62 180.42,-24.3 184.83,-116.77 6.37,-133.63 -162.26,-188.19 -237.54,-91.12 -21.81,28.13 -36.48,65.51 -27.04,111.78 8.03,39.34 18.48,27.37 11.33,52.68 -4.51,16 -12.57,40.32 -14.82,55.48z"></path>  <path class="fil3" d="M229.55 611.1c0.21,4.48 0.52,10.59 -11.6,9.92 -5.15,-0.28 -11.7,-4.48 -12.76,-8.79 -0.83,-3.41 0.28,-5.17 2.82,-5.8 4.21,-1.04 4.25,2.25 6.47,4 6.77,5.32 5.75,-2.2 15.07,0.67zm-16.31 -32.03c-16.24,3.2 -16.09,-19.01 -9.05,-22.07 10,-4.35 15.35,11.42 9.05,22.07zm-73.85 73.29c24.97,7.6 62.65,5.99 80.5,-8.26 25.89,-20.68 16.6,-39 23.67,-49.03 3.69,-5.25 7.27,-7.58 9.29,-14.48 -25.59,-12.31 -20.15,-22.16 -32.48,-37.15 -9.27,-11.26 -21.94,-24.13 -38.56,-30.3 1.06,30.57 -3.04,48.45 -29.44,63.38 -6.59,-2.92 -6.25,-7.11 -14.96,-8.04 -21.12,-2.26 -27.12,22.8 -14.8,36.39 8.07,8.9 23.13,6.28 26.76,16.79 4.95,14.38 -5.28,24.19 -9.98,30.7z"></path>  <path class="fil9" d="M43.38 808.4c-2.42,5.86 -6,11.22 -9.21,17.64 -8.98,18.02 -17.74,38.06 -23.39,57.99 -12.12,42.68 -15.65,92.85 24.71,120.42 23.73,16.22 54.79,19.75 83.02,24.52 5.76,0.98 44.08,5.41 48.39,4.61 9.6,0.66 34.06,0.33 40.47,4.12 15.87,-3.3 30.14,5.36 44.2,-2.44l-0.4 -15.75 0.24 -80.7c0.49,-42.8 12.06,-30.59 -122.44,-33.7 3.17,-16.14 26.52,-58.07 22.47,-70.55l-8.14 -0.58c-5.45,6.93 -12.74,29.8 -16.58,39.56 -15.25,38.71 -20.08,44.25 0.88,44.4 5.36,0.04 10.69,0.16 16.05,0.26l95.1 1.78 -0.68 105.58c-39.85,-2.31 -79.88,-4.98 -119.05,-10.19 -40.06,-5.32 -74.69,-12.62 -91.55,-37.78 -20.13,-30.05 -10.66,-72.39 1.04,-104.88 5.57,-15.45 12.37,-30.51 19.62,-44.34 10.03,-19.14 24.99,-35.55 14.82,-41.55 -11.53,1.03 -12.96,14.8 -19.57,21.58z"></path>  <path class="fil3" d="M260.06 938.7l-8.65 0.11 -0.24 80.7 13.91 0.61c-0.38,-10.66 7.57,-6.23 28.29,-6.59 24.76,-0.43 71.65,-5.45 83.65,-26 -11.61,2.45 -36.78,12.45 -47.87,8.25 -5.21,-11.94 11.67,-4.35 46.16,-17.53 6.45,-2.46 10.75,-3.05 8.27,-10.76 -2.85,-3.51 -34.3,3.87 -42.85,5.5 -10.84,2.06 -9.81,3.51 -11.06,-5.5 5.47,-4.71 33.36,-6.77 41.73,-9.09 -11.91,-8 -52.65,-7.16 -57.2,-11.68 -6.2,-5.63 -0.9,-16.16 -5.23,-19.91 -9.28,-4.83 -23.12,0.31 -29.25,5.27 -4.27,3.45 -13.36,22.9 -19.66,6.62z"></path>  <path class="fil3" d="M629.87 600.5c1.77,18.14 -29.23,210.11 -29.71,241.8 33,-1.71 24.62,14.38 34.92,-66.42l17.07 -132.53c2.83,-21.58 7,-46.02 8.51,-67.44l0.32 -6.25c-5.84,5.14 -9.77,9.87 -16.42,15.18 -19.02,15.2 -9.68,9.22 -14.69,15.66z"></path>  <path class="fil3" d="M520.04 443.14c-18.62,-1.7 -41.22,-25.42 -48.56,-37.58 -7.96,-13.19 12.89,-12.2 7.63,-27.73 -2.55,-7.56 -9.58,-23.7 -13.05,-29.07 -14.1,-2.39 -18.43,0.84 -24.33,8.53 -31.29,40.81 48.5,116.95 95.75,116.84 18.64,-0.04 36.04,-12.55 32.01,-32.71 -3.6,-2.92 -22.97,-12.56 -28.03,-14.34 -10.78,-3.8 -10.5,8.67 -21.42,16.06z"></path>  <path class="fil3" d="M424.92 692.02l-2.11 11.12c5.77,2.93 54.95,15.72 60.56,15.17l0.23 -6.69c-6.55,-5.61 0.44,-12.12 4.27,-17.53 4,-5.64 7.03,-10.64 10.87,-16.75 5.61,-8.92 15.33,-25.33 17.68,-36.37 -11.9,0.29 -23.05,1.16 -35.39,0.45 -7.91,-0.46 -25.97,-3.87 -31.77,-2.82 6.46,1.71 13.84,11.16 16.99,17.93 4.02,8.62 10.73,23.65 -4.86,23.26 -4.35,-6.46 -4.38,-14.03 -8.69,-21.34 -4.79,-8.12 -8.11,-7.79 -17.25,-11.71 -3.08,-13.03 -2.76,-35.36 -17.54,-37.16 0.05,17.07 5.58,25.42 3.98,44.81 -1.93,23.39 14.52,33.86 3.03,37.63z"></path>  <path class="fil3" d="M779.19 1051.78c2.37,15.14 17.13,28.27 35.31,25.38 15.3,-2.44 28.31,-17.92 25.4,-36.94 -6.07,-39.55 -67.43,-31.25 -60.71,11.56z"></path>  <path class="fil6" d="M379.66 931.66c-3.59,13.25 12.96,8.53 24.12,8.16l165.67 -5.38c10.07,-0.33 62.99,0.18 65.97,-4.41 7.01,-10.82 -17.94,-7.62 -23.82,-7.43l-100.32 3.27c-18.13,0.58 -123.82,1.7 -131.62,5.79z"></path>  <path class="fil6" d="M405.97 623.31c5.53,17.55 1.55,30.91 4.34,49.62 2.9,5.63 4.32,22.85 14.61,19.09 11.49,-3.77 -4.96,-14.24 -3.03,-37.63 1.6,-19.39 -3.93,-27.74 -3.98,-44.81 14.78,1.8 14.46,24.13 17.54,37.16 9.14,3.92 12.46,3.59 17.25,11.71 4.31,7.31 4.34,14.88 8.69,21.34 15.59,0.39 8.88,-14.64 4.86,-23.26 -3.15,-6.77 -10.53,-16.22 -16.99,-17.93 -4.21,-1.84 -2.5,-0.51 -4.51,-11.49 -0.64,-3.47 -1.58,-6.88 -2.74,-10.3 -7.34,-21.47 -23.4,-23.9 -32.37,-16.91 -6.77,5.27 -4.35,15.11 -3.67,23.41z"></path>  <path class="fil6" d="M779.19 1051.78c-6.72,-42.81 54.64,-51.11 60.71,-11.56 2.91,19.02 -10.1,34.5 -25.4,36.94 -18.18,2.89 -32.94,-10.24 -35.31,-25.38zm-8.57 0c2.45,20.28 21.34,37.73 45.86,33.67 19.27,-3.18 35.52,-22.63 31.82,-46.51 -7.65,-49.24 -84.15,-40.48 -77.68,12.84z"></path>  <path class="fil6" d="M957.44 254.97c0.08,11.9 -8.04,7.6 -18.71,6.18 -15.04,-1.99 -65.73,-6.52 -72.1,-10.74 -2.46,-11.81 9.07,-7.35 17.66,-6.21 16.36,2.17 65.49,6.62 73.15,10.77zm-93.48 -19.12c-8.21,4.72 -8.66,18.29 -0.15,23.09 4.9,2.77 88.77,13.86 95.21,11.05 8.05,-3.52 10.42,-17.51 1.16,-23.13 -6.18,-3.76 -22.66,-4.31 -31.04,-5.39 -11.84,-1.53 -57.43,-10.07 -65.18,-5.62z"></path>  <path class="fil6" d="M556.14 1006.59c4.07,-13.55 -10.74,-8.84 -39.04,-7.94 -15.78,0.51 -32.15,1.04 -47.94,1.57 -16.73,0.55 -32.77,1.07 -49.39,1.61 -8.14,0.26 -45.2,-2.33 -37.45,8.55 3.66,4.77 12.21,2.74 21.46,2.43l66.86 -2.18c15.17,-0.49 76.59,-0.88 85.5,-4.04z"></path>  <path class="fil9" d="M516.42 640.97c-2.35,11.04 -12.07,27.45 -17.68,36.37 -3.84,6.11 -6.87,11.11 -10.87,16.75 -3.83,5.41 -10.82,11.92 -4.27,17.53 8.52,3.12 13.02,-6.71 20,-17.78l6.73 -8.64c0.67,-5.5 6.49,-12.42 9.53,-18.73 2.47,-5.11 5.75,-15.84 9.6,-19.52l0.61 -7.55 -13.65 1.57z"></path>  <path class="fil10" d="M866.63 250.41c6.37,4.22 57.06,8.75 72.1,10.74 10.67,1.42 18.79,5.72 18.71,-6.18 -7.66,-4.15 -56.79,-8.6 -73.15,-10.77 -8.59,-1.14 -20.12,-5.6 -17.66,6.21z"></path>  <path class="fil11" d="M643.2 100.86c4.45,2.13 5.38,3.32 8.34,7.07 4.2,5.34 4.01,5.72 12.37,5.08 2.92,-10.09 4.82,-6.88 -12.87,-23.49 -5.06,-4.75 -15.27,-20.27 -23.63,-12.87 -2.9,6.98 2.37,9.82 5.86,13.2l8.72 8.56c1.78,2.5 0.46,-0.03 1.21,2.45z"></path>  <path class="fil11" d="M678.49 53.93c-0.52,9.78 3.74,19.3 2.44,28.44 1.37,2.03 0.42,0.15 1.46,3.3 1.43,4.35 0.95,16.41 13.59,9.8l0.29 -8.64 -4.72 -27.61c-2.76,-8.32 -6.77,-9.14 -13.06,-5.29z"></path>  <path class="fil11" d="M601.39 124.62c0.3,13.5 13.59,10.25 24.79,13.79 6.92,1.14 14.08,4.67 18.34,0.21 10.62,-9.86 -11.29,-12.11 -17.47,-13.39 -9.69,-1.99 -19.63,-6.45 -25.66,-0.61z"></path>  <path class="fil6" d="M913.88 208.9c7.06,-4.27 7.61,0.98 6.27,6.44l-6.51 -0.67 0.24 -5.77zm-2.02 -8.37c-4.64,2.78 -10.83,7.09 -5.66,17.42 2.6,5.19 10.76,8.43 17.79,4.02 12.32,-7.72 2.39,-30.13 -12.13,-21.44z"></path>  <path class="fil6" d="M213.24 579.07c6.3,-10.65 0.95,-26.42 -9.05,-22.07 -7.04,3.06 -7.19,25.27 9.05,22.07z"></path>  <path class="fil6" d="M205.19 612.23c1.06,4.31 7.61,8.51 12.76,8.79 12.12,0.67 11.81,-5.44 11.6,-9.92 -9.32,-2.87 -8.3,4.65 -15.07,-0.67 -2.22,-1.75 -2.26,-5.04 -6.47,-4 -2.54,0.63 -3.65,2.39 -2.82,5.8z"></path>  <path class="fil10" d="M913.88 208.9l-0.24 5.77 6.51 0.67c1.34,-5.46 0.79,-10.71 -6.27,-6.44z"></path> </g></svg>